<svg xmlns="http://www.w3.org/2000/svg" width="29.972" height="35.967" viewBox="0 0 29.972 35.967">
  <g id="noun_Download_file_972253" data-name="noun_Download file_972253" transform="translate(-2)">
    <g id="Group_340" data-name="Group 340" transform="translate(2)">
      <path id="Path_683" data-name="Path 683" d="M14.379,18.079H13.318L8.293,13.053l1.06-1.06,4.5,4.5,4.5-4.5,1.06,1.06Z" transform="translate(1.138 5.98)" fill="#417a25"/>
      <rect id="Rectangle_44" data-name="Rectangle 44" width="1.499" height="8.992" transform="translate(14.237 13.488)" fill="#417a25"/>
      <rect id="Rectangle_45" data-name="Rectangle 45" width="12" height="1" transform="translate(9 26.967)" fill="#417a25"/>
      <path id="Path_684" data-name="Path 684" d="M9.242,9.493H4v-1.5H9.242a.753.753,0,0,0,.752-.752V2h1.5V7.242A2.254,2.254,0,0,1,9.242,9.493Z" transform="translate(-1.003 0.997)" fill="#417a25"/>
      <path id="Path_685" data-name="Path 685" d="M28.975,35.967H5a3,3,0,0,1-3-3V8.236l.219-.531L9.706.219,10.236,0H28.975a3,3,0,0,1,3,3V32.969A3,3,0,0,1,28.975,35.967ZM3.5,8.547V32.969a1.5,1.5,0,0,0,1.5,1.5H28.975a1.5,1.5,0,0,0,1.5-1.5V3a1.5,1.5,0,0,0-1.5-1.5H10.547Z" transform="translate(-2)" fill="#417a25"/>
    </g>
  </g>
</svg>
